inDegrees=no
num_controls=7
num_derivatives=13
num_iterations=97
num_multipliers=7
num_parameters=0
num_slacks=7
num_states=26
objective=0.489232
objective_accelerations=0.009478
objective_balance=0.000470
objective_effort=0.008276
objective_height=0.452505
objective_ligament=0.018503
solver_duration=1586.186006
status=Solve_Succeeded
success=true
DataType=double
version=3
OpenSimVersion=4.5
endheader
time	/jointset/ground_pelvis/pelvis_tilt/value	/jointset/ground_pelvis/pelvis_tx/value	/jointset/ground_pelvis/pelvis_ty/value	/jointset/hip_l/hip_flexion_l/value	/jointset/hip_l/hip_adduction_l/value	/jointset/hip_l/hip_rotation_l/value	/jointset/back/lumbar_extension/value	/jointset/patellofemoral_l/patellar_flexion_l/value	/jointset/knee_l/knee_flexion_l/value	/jointset/knee_l/knee_adduction_l/value	/jointset/knee_l/knee_rotation_l/value	/jointset/ankle_l/ankle_angle_l/value	/jointset/subtalar_l/subtalar_angle_l/value	/jointset/ground_pelvis/pelvis_tilt/speed	/jointset/ground_pelvis/pelvis_tx/speed	/jointset/ground_pelvis/pelvis_ty/speed	/jointset/hip_l/hip_flexion_l/speed	/jointset/hip_l/hip_adduction_l/speed	/jointset/hip_l/hip_rotation_l/speed	/jointset/back/lumbar_extension/speed	/jointset/patellofemoral_l/patellar_flexion_l/speed	/jointset/knee_l/knee_flexion_l/speed	/jointset/knee_l/knee_adduction_l/speed	/jointset/knee_l/knee_rotation_l/speed	/jointset/ankle_l/ankle_angle_l/speed	/jointset/subtalar_l/subtalar_angle_l/speed	/forceset/tau_hip_flexion_l	/forceset/tau_hip_adduction_l	/forceset/tau_hip_rotation_l	/forceset/tau_knee_flexion_l	/forceset/tau_ankle_angle_l	/forceset/tau_subtalar_angle_l	/forceset/tau_lumbar_extension	lambda_cid13_p0	lambda_cid13_p1	lambda_cid13_p2	lambda_cid13_p3	lambda_cid13_p4	lambda_cid13_p5	lambda_cid14_p0	/jointset/ground_pelvis/pelvis_tilt/accel	/jointset/ground_pelvis/pelvis_tx/accel	/jointset/ground_pelvis/pelvis_ty/accel	/jointset/hip_l/hip_flexion_l/accel	/jointset/hip_l/hip_adduction_l/accel	/jointset/hip_l/hip_rotation_l/accel	/jointset/back/lumbar_extension/accel	/jointset/patellofemoral_l/patellar_flexion_l/accel	/jointset/knee_l/knee_flexion_l/accel	/jointset/knee_l/knee_adduction_l/accel	/jointset/knee_l/knee_rotation_l/accel	/jointset/ankle_l/ankle_angle_l/accel	/jointset/subtalar_l/subtalar_angle_l/accel	gamma_cid13_p0	gamma_cid13_p1	gamma_cid13_p2	gamma_cid13_p3	gamma_cid13_p4	gamma_cid13_p5	gamma_cid14_p0
1.5	0.1001240261646851	0.1886290437665065	0.8966615105189337	0.05916108892427272	-0.3107409615234448	-0.2672118332252628	-0.2256367437910405	0.3482227085062751	0.3482227085063018	0.006915072494003117	-0.173528399278656	0.2920640470938241	0.2297443048938094	-0.5694135233400773	-0.06446977031087207	0.06138510656329864	0.2548722128155715	0.168217958089658	-0.2343236609059781	0.5565254478742513	-0.8747148762941916	-0.8747148762941558	0.06290204180342721	0.01134092214674567	-0.5660482283711137	-0.05452221916063367	0.05729180309936748	0.01968067616740905	-0.003868572333940172	-0.1298792570358529	-0.07003837611451968	-0.004140943282076929	0.003866255841996491	-48.96889796147969	5.292758229966727	4.677478643123285	8.604170553268943	-457.1709406344847	-67.86779620018602	-24.80254434101555	-0.3377947317153422	-0.2871753343242791	-0.1271312561894177	0.3691072812257868	0.1621975448899126	0.0837052537654512	0.005086596724163766	-0.6902165443362579	-0.690216544336258	-0.09390195279531348	0.07226017984665192	-0.6771945862900633	-0.07779513449257257	4.229459947196708e-09	-1.563328247981513e-07	1.207531327263542e-07	-2.086081699175507e-08	-1.714869924448843e-08	-2.178125451901633e-07	-1.529333140139355e-08
1.51	0.09441354033215596	0.1879701336841937	0.8972687901236738	0.06172824863967862	-0.3090508400619415	-0.2695505308736718	-0.2200716427946831	0.3394424940098355	0.3394424940098633	0.007539561181874752	-0.1734112984263071	0.2863707080721753	0.2291955034695646	-0.5726159827896643	-0.06729779608906564	0.06005279339841536	0.2585287813875618	0.1697798997118819	-0.2333835311975716	0.5564361595909131	-0.8812040117709226	-0.8812040117708753	0.06198460082606811	0.01207773440703676	-0.5725317421757999	-0.05522692002267408	0.05648228746473268	0.01862809433098326	-0.00393183120922876	-0.1275820615661755	-0.06819311963217536	-0.004280981789379185	0.003810365779878321	-48.31825662933321	5.173421566803762	4.772157859965583	8.219576152647095	-456.477698270519	-68.10579502934064	-24.90082489494399	-0.3013219106480642	-0.2784532801493474	-0.138988152903415	0.3592900617537333	0.1492193816214093	0.1039967288946091	-0.02472531182089494	-0.6096568705422751	-0.6096568705405653	-0.09234151347421973	0.07418320702588921	-0.6207614602857209	-0.0651244503731172	4.645369571327414e-09	-1.701170303108591e-07	1.312089157652766e-07	-2.223961784879876e-08	-1.790300887246454e-08	-2.357794679470786e-07	-1.673473566616569e-08
1.52	0.08867305983331775	0.1872833759279826	0.897862205235512	0.06433104572411977	-0.3073458938020686	-0.271878861245093	-0.2145091924353501	0.3306011091943933	0.330601109194414	0.008154540191319956	-0.1732868711597692	0.2806151675759343	0.2286399916590367	-0.5754124566019564	-0.0700393050905601	0.05861220798289246	0.2619996866222757	0.1711829177634203	-0.2322502055085099	0.5559953204692525	-0.8869489400956844	-0.8869489400956256	0.0610001061179882	0.01280620498354975	-0.5784885232895988	-0.05586429641724821	0.05567277183011127	0.01757551249454289	-0.003995090084560176	-0.1252848660964956	-0.06634786314983397	-0.004421020296702049	0.003754475717776127	-47.67212037213005	5.057455749780596	4.863350570438516	7.851463979447554	-455.8371105588055	-68.34718189553747	-24.99278559567619	-0.2565976042563684	-0.2698719789844548	-0.1487857063173419	0.3319746137705271	0.1304128307528122	0.1223444498965163	-0.06522357094033832	-0.5413751139424424	-0.541375113942442	-0.1073126989394694	0.07059184309104341	-0.5718480481125949	-0.06433024099930917	6.094372509108481e-09	-1.691449009182747e-07	1.288538079157432e-07	-2.252210080368143e-08	-1.270206894330908e-08	-2.302064259940449e-07	-1.665249067112619e-08
1.53	0.08290689814932976	0.1865696541928512	0.8984407230714657	0.06696721881169074	-0.3056277173324006	-0.2741949389825413	-0.208953197922412	0.3217058221482908	0.3217058221482832	0.008759286113227089	-0.1731552002044903	0.2748026445080516	0.2280784035690774	-0.5777393923721605	-0.07268926252252712	0.05707602523369969	0.2651894970968426	0.1724262451612128	-0.2309387404859258	0.5551292663206754	-0.8919828833441205	-0.8919828833440818	0.0599419545486972	0.0135235414569977	-0.5839250229126941	-0.05644066040069302	0.05487372430276477	0.01642069380730089	-0.004055170738393848	-0.1230438015627246	-0.06438701663683352	-0.004499538773494713	0.003694108838686267	-46.98169758728145	4.91051508466116	4.955486279327692	7.437109798092891	-455.189799320031	-68.66456306616432	-25.0781855734468	-0.2086679160166456	-0.2601949467917265	-0.1583336557298361	0.3056700909565958	0.1173685354830826	0.1395212408430529	-0.1084437064725563	-0.4655632551096004	-0.465563255112592	-0.1061457126320387	0.07165249959886912	-0.5158953373581325	-0.05238055801371532	8.641037092643045e-09	-1.524941656888177e-07	1.128871284972257e-07	-2.163974598751804e-08	-1.173676359701406e-09	-1.996221715366907e-07	-1.495136833753687e-08
1.54	0.07711988183711714	0.1858299054191023	0.8990034192606258	0.06963392716933808	-0.3038978924205158	-0.2764971073272827	-0.2034080934248909	0.3127639638047442	0.3127639638047	0.009353234654100914	-0.1730164862944475	0.268938487560348	0.2275114336230843	-0.5795833822469306	-0.07524471281405326	0.05544787862410592	0.268106740637683	0.1735126062066327	-0.2294683269671935	0.5538173173858528	-0.8962631995851732	-0.8962631995851543	0.05884062991108106	0.01421479593553343	-0.5888152992537946	-0.05694066762400368	0.0540746767754034	0.01526587512004993	-0.004115251392266291	-0.1208027370289638	-0.06242617012383864	-0.004578057250301539	0.003633741959590334	-46.29453107747558	4.767190095668221	5.043567006316729	7.036638927268013	-454.5726461010048	-68.9814115492883	-25.15679752015931	-0.1600084251695861	-0.2509705508962708	-0.1671784783975446	0.2774612270252304	0.09901956027832438	0.1541341491261496	-0.1544025281894141	-0.3906497124657685	-0.3906497124657649	-0.1159473126044949	0.06537544410860772	-0.4626033917136499	-0.04905888897246989	9.891468652597965e-09	-1.436371298712879e-07	1.06187019858616e-07	-2.121752763253784e-08	6.844780226939885e-09	-1.843000214884672e-07	-1.439309148218219e-08
